<svg width="52" height="52" viewBox="0 0 52 52" fill="none" xmlns="http://www.w3.org/2000/svg">
<path d="M14.625 9.75V14.7773C13.5967 14.9868 12.6318 15.4312 11.7812 15.9961L8.22656 12.3906L5.89062 14.7266L9.49609 18.2812C8.93115 19.1318 8.48682 20.0967 8.27734 21.125H3.25V24.375H8.32812C8.5376 25.397 8.9502 26.3237 9.49609 27.168L5.89062 30.7734L6.90625 31.7891C6.68408 32.5317 6.5 33.3125 6.5 34.125C6.5 38.6064 10.1436 42.25 14.625 42.25H40.625C45.1064 42.25 48.75 38.6064 48.75 34.125C48.75 30.8433 46.7822 27.917 43.8242 26.6602C43.3672 22.731 40.0664 19.6587 36.0547 19.5C34.3281 16.4976 31.1416 14.625 27.625 14.625C27.2568 14.625 26.9141 14.6377 26.5586 14.6758L24.2734 12.3906L20.7188 15.9961C19.8682 15.4502 18.897 15.0376 17.875 14.8281V9.75H14.625ZM16.25 17.875C17.4941 17.875 18.5986 18.3384 19.4492 19.0938C19.0239 19.7476 18.6431 20.4712 18.3828 21.2266C15.812 21.6646 13.749 23.6323 13.1523 26.1523C13.0635 26.165 12.981 26.1841 12.8984 26.2031C11.9907 25.3208 11.375 24.1274 11.375 22.75C11.375 20.0396 13.5396 17.875 16.25 17.875ZM27.625 17.875C30.2339 17.875 32.5889 19.4365 33.6172 21.8359L34.0742 22.9531L35.5469 22.8008C35.6167 22.7881 35.6738 22.75 35.75 22.75C38.4351 22.75 40.6187 24.9463 40.625 27.5234L40.5742 29.0977L41.8438 29.4023C44.0083 29.9546 45.5 31.9097 45.5 34.125C45.5 36.8101 43.3101 39 40.625 39H14.625C11.9399 39 9.75 36.8101 9.75 34.125C9.75 31.4399 11.9399 29.25 14.625 29.25H16.25V27.625C16.25 25.835 17.7036 24.3813 19.3477 24.375L20.9727 24.4766L21.2773 23.1055C21.8867 20.084 24.54 17.875 27.625 17.875Z" fill="#F2F2F2"/>
</svg>
